<?xml version="1.0" standalone="no"?>
<!DOCTYPE svg PUBLIC "-//W3C//DTD SVG 20010904//EN"
 "http://www.w3.org/TR/2001/REC-SVG-20010904/DTD/svg10.dtd">
<svg version="1.0" xmlns="http://www.w3.org/2000/svg"
 width="468.000000pt" height="215.000000pt" viewBox="0 0 468.000000 215.000000"
 preserveAspectRatio="xMidYMid meet">

<g transform="translate(0.000000,215.000000) scale(0.100000,-0.100000)"
fill="#004C94" stroke="none">
<path d="M0 1075 l0 -1075 2340 0 2340 0 0 1075 0 1075 -2340 0 -2340 0 0
-1075z m1026 646 c50 -37 594 -584 594 -597 0 -12 -21 -34 -33 -34 -5 0 -144
137 -310 305 -281 284 -304 305 -337 305 -32 0 -58 -23 -341 -306 -303 -303
-339 -332 -339 -277 0 18 577 601 615 622 11 6 41 11 66 11 35 0 55 -7 85 -29z
m2195 -88 c40 -22 59 -40 83 -83 28 -49 31 -63 30 -135 0 -66 -5 -89 -27 -132
-79 -154 -332 -156 -416 -4 -47 85 -37 233 21 306 19 25 78 60 128 76 44 15
127 2 181 -28z m-2023 -226 l252 -252 0 -383 0 -382 -510 0 -510 0 0 388 0
387 248 248 c136 136 252 247 258 247 5 0 123 -114 262 -253z m930 241 c24
-31 182 -433 182 -465 0 -11 -14 -13 -57 -11 l-56 3 -17 50 -17 50 -83 3 c-49
2 -87 -1 -94 -8 -6 -6 -17 -29 -26 -53 -15 -41 -16 -42 -68 -45 -45 -3 -52 0
-52 15 0 31 103 304 160 426 22 46 23 47 70 47 26 0 52 -6 58 -12z m547 -18
c97 -49 141 -162 110 -282 -32 -125 -97 -169 -262 -176 -57 -2 -114 -1 -128 2
l-25 6 0 230 c0 207 2 230 18 240 10 6 62 9 127 8 94 -3 117 -7 160 -28z
m1001 15 c71 -21 106 -61 112 -128 9 -109 -60 -176 -190 -185 l-58 -4 0 -67
c0 -86 -6 -93 -66 -89 l-49 3 -3 234 c-2 181 1 236 10 243 22 13 191 9 244 -7z
m544 -35 l0 -50 -70 0 -70 0 -2 -192 -3 -193 -49 -3 c-32 -2 -52 1 -57 10 -5
7 -9 95 -9 195 l0 182 -67 3 -68 3 -3 33 c-6 64 -11 62 203 62 l195 0 0 -50z
m-1179 -565 c132 -46 172 -211 76 -312 -39 -41 -92 -61 -187 -71 l-75 -7 -5
-95 -5 -95 -65 0 -65 0 -3 292 -2 293 22 4 c58 13 79 14 168 11 52 -2 116 -11
141 -20z m-798 -87 c64 -145 187 -467 187 -491 0 -4 -32 -7 -72 -5 l-71 3 -22
60 -23 60 -113 0 -114 0 -21 -60 -21 -60 -63 -3 c-35 -2 -66 1 -71 5 -8 8 114
344 168 463 16 36 36 80 44 98 14 31 15 32 80 32 l66 0 46 -102z m1422 42 l0
-55 -132 -3 -133 -3 0 -54 0 -54 118 -3 117 -3 0 -55 0 -55 -117 -3 -118 -3 0
-64 0 -65 140 0 c77 0 140 -3 141 -7 0 -5 1 -30 2 -58 l2 -50 -213 -3 -212 -2
0 300 0 300 203 -2 202 -3 0 -55z m560 30 c4 -16 4 -43 0 -60 l-7 -30 -83 0
c-66 0 -84 -3 -89 -16 -3 -9 -6 -117 -6 -240 l0 -225 -67 3 -68 3 -3 238 -2
237 -84 0 c-91 0 -96 3 -96 60 0 63 -11 60 255 60 l243 0 7 -30z"/>
<path d="M3064 1559 c-16 -5 -41 -20 -55 -35 -21 -23 -24 -34 -24 -109 0 -78
2 -86 28 -113 52 -54 143 -48 182 11 22 34 30 125 16 170 -20 60 -85 93 -147
76z"/>
<path d="M744 1300 c-12 -4 -31 -20 -42 -35 -70 -88 -6 -235 101 -235 68 0
107 45 107 123 0 106 -84 180 -166 147z m77 -50 c47 -26 63 -110 28 -154 -43
-55 -117 -16 -126 67 -9 79 37 119 98 87z"/>
<path d="M1037 1291 c-58 -38 -86 -112 -67 -181 20 -75 98 -102 168 -60 82 50
83 203 2 245 -38 20 -69 19 -103 -4z m108 -61 c49 -94 -46 -209 -116 -139 -29
29 -23 108 11 144 35 37 85 34 105 -5z"/>
<path d="M553 1082 c-31 -5 -69 -47 -77 -83 -15 -77 45 -171 117 -184 76 -14
127 32 127 115 0 92 -80 166 -167 152z m75 -58 c73 -51 65 -164 -12 -164 -68
0 -124 112 -81 160 22 24 62 26 93 4z"/>
<path d="M1223 1059 c-34 -21 -73 -90 -73 -127 0 -59 54 -122 104 -122 42 0
98 34 121 75 36 61 35 127 -4 166 -37 36 -99 40 -148 8z m117 -39 c24 -24 26
-60 5 -100 -43 -83 -145 -78 -145 7 0 87 88 145 140 93z"/>
<path d="M865 951 c-52 -24 -78 -53 -110 -122 -22 -48 -30 -58 -58 -63 -70
-13 -122 -90 -115 -171 6 -66 37 -111 95 -137 41 -18 51 -19 154 -7 87 10 131
10 218 0 103 -12 113 -11 154 7 77 34 117 135 83 213 -18 44 -68 88 -108 96
-23 4 -35 17 -58 62 -63 125 -155 168 -255 122z m131 -40 c40 -24 80 -77 97
-126 14 -41 25 -50 71 -60 16 -3 42 -20 58 -37 57 -62 26 -175 -55 -196 -17
-4 -58 -4 -92 1 -33 5 -118 6 -190 2 -165 -8 -175 -8 -203 7 -27 14 -62 76
-62 108 0 53 59 115 115 122 26 3 32 10 49 56 40 113 137 169 212 123z"/>
<path d="M2038 1453 c-14 -38 -23 -71 -21 -75 2 -5 29 -8 59 -8 53 0 55 1 49
23 -13 45 -49 127 -55 127 -4 0 -19 -30 -32 -67z"/>
<path d="M2492 1413 l3 -148 45 4 c64 5 99 26 121 74 51 113 -10 217 -129 217
l-43 0 3 -147z"/>
<path d="M3540 1495 l0 -65 48 7 c59 7 82 27 82 69 0 41 -21 54 -84 54 l-46 0
0 -65z"/>
<path d="M2855 938 c-3 -8 -5 -46 -3 -84 l3 -69 57 1 c81 2 108 21 108 79 0
55 -23 74 -104 82 -44 5 -57 3 -61 -9z"/>
<path d="M2090 813 c-18 -48 -35 -94 -38 -100 -3 -10 16 -13 77 -13 l81 0 -32
88 c-45 128 -49 129 -88 25z"/>
</g>
</svg>
